<svg xmlns="http://www.w3.org/2000/svg" xmlns:xlink="http://www.w3.org/1999/xlink" width="500" zoomAndPan="magnify" viewBox="0 0 375 374.999991" height="500" preserveAspectRatio="xMidYMid meet" version="1.0"><defs><g/><clipPath id="21e403d542"><path d="M 4.796875 38.789062 L 305.730469 38.789062 L 305.730469 339.71875 L 4.796875 339.71875 Z M 4.796875 38.789062 " clip-rule="nonzero"/></clipPath><clipPath id="dc18ff4a67"><path d="M 28.796875 38.789062 L 281.730469 38.789062 C 294.984375 38.789062 305.730469 49.535156 305.730469 62.789062 L 305.730469 315.71875 C 305.730469 328.976562 294.984375 339.71875 281.730469 339.71875 L 28.796875 339.71875 C 15.542969 339.71875 4.796875 328.976562 4.796875 315.71875 L 4.796875 62.789062 C 4.796875 49.535156 15.542969 38.789062 28.796875 38.789062 Z M 28.796875 38.789062 " clip-rule="nonzero"/></clipPath><clipPath id="8328b5c3d1"><path d="M 0.796875 0.789062 L 301.730469 0.789062 L 301.730469 301.71875 L 0.796875 301.71875 Z M 0.796875 0.789062 " clip-rule="nonzero"/></clipPath><clipPath id="04c9132066"><path d="M 24.796875 0.789062 L 277.730469 0.789062 C 290.984375 0.789062 301.730469 11.535156 301.730469 24.789062 L 301.730469 277.71875 C 301.730469 290.976562 290.984375 301.71875 277.730469 301.71875 L 24.796875 301.71875 C 11.542969 301.71875 0.796875 290.976562 0.796875 277.71875 L 0.796875 24.789062 C 0.796875 11.535156 11.542969 0.789062 24.796875 0.789062 Z M 24.796875 0.789062 " clip-rule="nonzero"/></clipPath><clipPath id="ba37e68235"><rect x="0" width="302" y="0" height="302"/></clipPath><clipPath id="fa784aaba5"><rect x="0" width="374" y="0" height="375"/></clipPath><clipPath id="dc0c46f94a"><path d="M 353 196 L 371 196 L 371 214 L 353 214 Z M 353 196 " clip-rule="nonzero"/></clipPath><clipPath id="5dae5014c8"><path d="M 353.085938 213.242188 L 357.628906 196.378906 L 372.3125 200.335938 L 367.765625 217.199219 Z M 353.085938 213.242188 " clip-rule="nonzero"/></clipPath><clipPath id="cf5f9832c6"><path d="M 370.035156 208.785156 L 353.085938 213.242188 L 357.621094 196.417969 Z M 370.035156 208.785156 " clip-rule="nonzero"/></clipPath><clipPath id="b867018b01"><path d="M 0.0390625 0.320312 L 17.078125 0.320312 L 17.078125 17.359375 L 0.0390625 17.359375 Z M 0.0390625 0.320312 " clip-rule="nonzero"/></clipPath><clipPath id="6ca963e324"><path d="M 0.0859375 17.242188 L 4.628906 0.378906 L 19.3125 4.335938 L 14.765625 21.199219 Z M 0.0859375 17.242188 " clip-rule="nonzero"/></clipPath><clipPath id="8ead2fab50"><path d="M 17.035156 12.785156 L 0.0859375 17.242188 L 4.621094 0.417969 Z M 17.035156 12.785156 " clip-rule="nonzero"/></clipPath><clipPath id="eb763df220"><rect x="0" width="18" y="0" height="18"/></clipPath><clipPath id="0f1e4e212b"><rect x="0" width="208" y="0" height="114"/></clipPath></defs><g clip-path="url(#21e403d542)"><g clip-path="url(#dc18ff4a67)"><g transform="matrix(1, 0, 0, 1, 4, 38)"><g clip-path="url(#ba37e68235)"><g clip-path="url(#8328b5c3d1)"><g clip-path="url(#04c9132066)"><path fill="#000000" d="M 0.796875 0.789062 L 301.730469 0.789062 L 301.730469 301.71875 L 0.796875 301.71875 Z M 0.796875 0.789062 " fill-opacity="1" fill-rule="nonzero"/></g></g></g></g></g></g><g transform="matrix(1, 0, 0, 1, 1, 0)"><g clip-path="url(#fa784aaba5)"><g fill="#000000" fill-opacity="1"><g transform="translate(15.165934, 273.661477)"><g><path d="M 92.484375 0 L -1.4375 0 L -1.4375 -65.65625 L 92.484375 -65.65625 Z M 92.484375 0 "/></g></g></g><g fill="#000000" fill-opacity="1"><g transform="translate(106.229293, 273.661477)"><g><path d="M 92.484375 0 L -1.4375 0 L -1.4375 -65.65625 L 92.484375 -65.65625 Z M 92.484375 0 "/></g></g></g><g fill="#000000" fill-opacity="1"><g transform="translate(197.292652, 273.661477)"><g><path d="M 91.78125 5.71875 C 80.445312 5.71875 71.023438 3.753906 63.515625 -0.171875 C 50.992188 -6.617188 44.734375 -19.976562 44.734375 -40.25 C 44.734375 -45.144531 45.085938 -50.515625 45.796875 -56.359375 C 43.054688 -37.390625 37.242188 -23.253906 28.359375 -13.953125 C 19.472656 -4.648438 9.601562 0 -1.25 0 L -1.25 -65.65625 C 9.71875 -65.65625 19.082031 -67.503906 26.84375 -71.203125 C 40.3125 -77.523438 51.34375 -88.320312 59.9375 -103.59375 C 65.65625 -115.519531 70.425781 -124.941406 74.25 -131.859375 C 77.59375 -137.816406 81.347656 -143.300781 85.515625 -148.3125 C 94.816406 -159.289062 106.085938 -164.78125 119.328125 -164.78125 C 128.992188 -164.78125 138.476562 -161.257812 147.78125 -154.21875 C 157.082031 -147.1875 164.238281 -136.628906 169.25 -122.546875 C 172.113281 -114.203125 173.546875 -104.660156 173.546875 -93.921875 C 173.546875 -86.523438 172.890625 -78.59375 171.578125 -70.125 C 167.640625 -48.78125 159.972656 -31.632812 148.578125 -18.6875 C 137.191406 -5.75 124.046875 1.910156 109.140625 4.296875 C 102.929688 5.242188 97.144531 5.71875 91.78125 5.71875 Z M 112.359375 -58.5 C 120.585938 -58.5 128.90625 -59.003906 137.3125 -60.015625 C 145.71875 -61.035156 152.960938 -62.257812 159.046875 -63.6875 L 168 -65.65625 L 164.59375 -71.03125 C 162.207031 -74.601562 158.71875 -78.984375 154.125 -84.171875 C 149.539062 -89.359375 143.96875 -94.546875 137.40625 -99.734375 C 130.84375 -104.929688 123.328125 -109.316406 114.859375 -112.890625 C 106.390625 -116.472656 97.023438 -118.265625 86.765625 -118.265625 C 79.140625 -118.265625 72.820312 -115.578125 67.8125 -110.203125 C 62.800781 -104.835938 60.296875 -98.578125 60.296875 -91.421875 C 60.296875 -85.578125 62.289062 -80.597656 66.28125 -76.484375 C 70.28125 -72.367188 75.019531 -68.96875 80.5 -66.28125 C 85.988281 -63.601562 91.238281 -61.632812 96.25 -60.375 C 101.257812 -59.125 104.957031 -58.5 107.34375 -58.5 Z M 112.359375 -58.5 "/></g></g></g><g fill="#ffffff" fill-opacity="1"><g transform="translate(3.506827, 262.002369)"><g><path d="M 92.484375 0 L -1.4375 0 L -1.4375 -65.65625 L 92.484375 -65.65625 Z M 92.484375 0 "/></g></g></g><g fill="#ffffff" fill-opacity="1"><g transform="translate(94.570186, 262.002369)"><g><path d="M 92.484375 0 L -1.4375 0 L -1.4375 -65.65625 L 92.484375 -65.65625 Z M 92.484375 0 "/></g></g></g><g fill="#ffffff" fill-opacity="1"><g transform="translate(185.633545, 262.002369)"><g><path d="M 91.78125 5.71875 C 80.445312 5.71875 71.023438 3.753906 63.515625 -0.171875 C 50.992188 -6.617188 44.734375 -19.976562 44.734375 -40.25 C 44.734375 -45.144531 45.085938 -50.515625 45.796875 -56.359375 C 43.054688 -37.390625 37.242188 -23.253906 28.359375 -13.953125 C 19.472656 -4.648438 9.601562 0 -1.25 0 L -1.25 -65.65625 C 9.71875 -65.65625 19.082031 -67.503906 26.84375 -71.203125 C 40.3125 -77.523438 51.34375 -88.320312 59.9375 -103.59375 C 65.65625 -115.519531 70.425781 -124.941406 74.25 -131.859375 C 77.59375 -137.816406 81.347656 -143.300781 85.515625 -148.3125 C 94.816406 -159.289062 106.085938 -164.78125 119.328125 -164.78125 C 128.992188 -164.78125 138.476562 -161.257812 147.78125 -154.21875 C 157.082031 -147.1875 164.238281 -136.628906 169.25 -122.546875 C 172.113281 -114.203125 173.546875 -104.660156 173.546875 -93.921875 C 173.546875 -86.523438 172.890625 -78.59375 171.578125 -70.125 C 167.640625 -48.78125 159.972656 -31.632812 148.578125 -18.6875 C 137.191406 -5.75 124.046875 1.910156 109.140625 4.296875 C 102.929688 5.242188 97.144531 5.71875 91.78125 5.71875 Z M 112.359375 -58.5 C 120.585938 -58.5 128.90625 -59.003906 137.3125 -60.015625 C 145.71875 -61.035156 152.960938 -62.257812 159.046875 -63.6875 L 168 -65.65625 L 164.59375 -71.03125 C 162.207031 -74.601562 158.71875 -78.984375 154.125 -84.171875 C 149.539062 -89.359375 143.96875 -94.546875 137.40625 -99.734375 C 130.84375 -104.929688 123.328125 -109.316406 114.859375 -112.890625 C 106.390625 -116.472656 97.023438 -118.265625 86.765625 -118.265625 C 79.140625 -118.265625 72.820312 -115.578125 67.8125 -110.203125 C 62.800781 -104.835938 60.296875 -98.578125 60.296875 -91.421875 C 60.296875 -85.578125 62.289062 -80.597656 66.28125 -76.484375 C 70.28125 -72.367188 75.019531 -68.96875 80.5 -66.28125 C 85.988281 -63.601562 91.238281 -61.632812 96.25 -60.375 C 101.257812 -59.125 104.957031 -58.5 107.34375 -58.5 Z M 112.359375 -58.5 "/></g></g></g></g></g><g clip-path="url(#dc0c46f94a)"><g clip-path="url(#5dae5014c8)"><g clip-path="url(#cf5f9832c6)"><g transform="matrix(1, 0, 0, 1, 353, 196)"><g clip-path="url(#eb763df220)"><g clip-path="url(#b867018b01)"><g clip-path="url(#6ca963e324)"><g clip-path="url(#8ead2fab50)"><path fill="#000000" d="M 0.0859375 17.242188 L 4.613281 0.4375 L 19.296875 4.394531 L 14.765625 21.199219 Z M 0.0859375 17.242188 " fill-opacity="1" fill-rule="nonzero"/></g></g></g></g></g></g></g></g><g transform="matrix(1, 0, 0, 1, 19, 83)"><g clip-path="url(#0f1e4e212b)"><g fill="#ffffff" fill-opacity="1"><g transform="translate(1.158115, 77.332432)"><g><path d="M 25.78125 30.71875 L 20.1875 26.734375 L 17.3125 30.71875 L 10.34375 25.765625 L 14.703125 19.40625 L 20.34375 23.546875 L 23.203125 19.40625 L 30.25 24.578125 Z M 21.484375 16.484375 C 18.078125 16.484375 15.160156 16.140625 12.734375 15.453125 C 8.179688 14.160156 4.992188 11.988281 3.171875 8.9375 C 2.191406 7.28125 1.703125 5.585938 1.703125 3.859375 C 1.703125 1.765625 2.234375 -0.429688 3.296875 -2.734375 C 4.359375 -5.046875 5.753906 -7.242188 7.484375 -9.328125 C 9.222656 -11.410156 10.859375 -13.046875 12.390625 -14.234375 C 9.191406 -11.054688 7.59375 -8.128906 7.59375 -5.453125 C 7.59375 -5.429688 7.601562 -4.738281 7.625 -3.375 C 7.644531 -2.019531 9.113281 -0.519531 12.03125 1.125 C 14.945312 2.78125 19.035156 3.609375 24.296875 3.609375 C 30.003906 3.609375 34.550781 3.492188 37.9375 3.265625 C 40.382812 3.035156 42.304688 1.945312 43.703125 0 L 23.109375 0 L 31.078125 -11.5 L 45.203125 -11.5 L 45.203125 0 L 44.203125 0 C 43.953125 0.9375 43.519531 2.085938 42.90625 3.453125 C 42.289062 4.828125 41.4375 6.265625 40.34375 7.765625 C 39.257812 9.273438 37.867188 10.6875 36.171875 12 C 34.484375 13.320312 32.429688 14.398438 30.015625 15.234375 C 27.609375 16.066406 24.765625 16.484375 21.484375 16.484375 Z M 21.484375 16.484375 "/></g></g></g><g fill="#ffffff" fill-opacity="1"><g transform="translate(46.172547, 77.332432)"><g><path d="M 3.203125 0 L -0.25 0 L -0.25 -11.5 L 16.21875 -11.5 L 14.890625 -13.390625 C 13.992188 -14.640625 12.691406 -16.144531 10.984375 -17.90625 C 9.285156 -19.675781 7.210938 -21.398438 4.765625 -23.078125 L 9.03125 -31.71875 L 10.1875 -30.75 C 10.945312 -30.082031 11.8125 -29.035156 12.78125 -27.609375 C 13.75 -26.191406 14.585938 -24.367188 15.296875 -22.140625 C 16.015625 -19.921875 16.375 -17.285156 16.375 -14.234375 L 16.375 -13.984375 C 16.3125 -10.703125 15.875 -8.109375 15.0625 -6.203125 C 14.257812 -4.304688 13.21875 -2.910156 11.9375 -2.015625 C 10.664062 -1.128906 9.257812 -0.570312 7.71875 -0.34375 C 6.1875 -0.113281 4.679688 0 3.203125 0 Z M 11.296875 -34.296875 L 5.703125 -38.25 L 2.828125 -34.296875 L -4.140625 -39.21875 L 0.21875 -45.578125 L 5.859375 -41.4375 L 8.71875 -45.578125 L 15.78125 -40.40625 Z M 11.296875 -34.296875 "/></g></g></g><g fill="#ffffff" fill-opacity="1"><g transform="translate(63.695584, 77.332432)"><g><path d="M 20.546875 0 C 18.285156 0 16.257812 -0.671875 14.46875 -2.015625 C 12.6875 -3.367188 11.460938 -5.148438 10.796875 -7.359375 L 0.953125 -41.9375 L 11.359375 -50.25 L 11.359375 -11.5 L 20.546875 -11.5 Z M 20.546875 0 "/></g></g></g><g fill="#ffffff" fill-opacity="1"><g transform="translate(83.977165, 77.332432)"><g><path d="M -2.65625 11.28125 C -1.925781 9.53125 -1.03125 7.453125 0.03125 5.046875 C 0.945312 3.015625 1.691406 1.332031 2.265625 0 L -0.375 0 L -0.375 -11.5 L 6.015625 -11.5 L 1.125 -44.890625 L 9.6875 -51.71875 L 9.6875 -15.109375 C 12.59375 -19.765625 15.503906 -23.367188 18.421875 -25.921875 C 21.335938 -28.472656 24.132812 -30 26.8125 -30.5 C 27.6875 -30.644531 28.507812 -30.71875 29.28125 -30.71875 C 30.789062 -30.71875 32.171875 -30.347656 33.421875 -29.609375 C 34.671875 -28.867188 35.625 -27.664062 36.28125 -26 C 36.945312 -24.34375 37.34375 -22.582031 37.46875 -20.71875 C 37.53125 -19.695312 37.5625 -18.738281 37.5625 -17.84375 C 37.5625 -15.457031 37.34375 -13.34375 36.90625 -11.5 L 42.671875 -11.5 L 42.671875 0 L 2.921875 0 C 2.066406 1.65625 1.21875 3.335938 0.375 5.046875 Z M 26.5625 -11.5 C 30.53125 -11.5625 33.957031 -12.367188 36.84375 -13.921875 C 36.84375 -16.222656 36.359375 -18.039062 35.390625 -19.375 C 33.867188 -21.46875 31.476562 -22.515625 28.21875 -22.515625 C 27.507812 -22.515625 26.457031 -22.414062 25.0625 -22.21875 C 23.675781 -22.03125 21.910156 -21.457031 19.765625 -20.5 C 17.628906 -19.539062 15.566406 -18.296875 13.578125 -16.765625 C 11.585938 -15.242188 9.820312 -13.488281 8.28125 -11.5 Z M 29.53125 -34.859375 L 22.578125 -39.8125 L 26.9375 -46.140625 L 33.984375 -40.96875 Z M 29.53125 -34.859375 "/></g></g></g><g fill="#ffffff" fill-opacity="1"><g transform="translate(126.358441, 77.332432)"><g><path d="M 9.09375 0 L -0.1875 0 L -0.1875 -11.5 L 25.953125 -11.5 C 28.316406 -11.5 30.46875 -12.234375 32.40625 -13.703125 L 32.53125 -13.828125 C 28.75 -13.929688 25.082031 -14.394531 21.53125 -15.21875 C 17.976562 -16.039062 14.800781 -16.882812 12 -17.75 C 8.757812 -18.75 6.390625 -19.300781 4.890625 -19.40625 C 4.410156 -19.40625 4.039062 -19.351562 3.78125 -19.25 L 3.46875 -19.03125 L 3.96875 -20.21875 C 4.601562 -21.625 5.460938 -22.910156 6.546875 -24.078125 C 8.679688 -26.398438 11.460938 -27.5625 14.890625 -27.5625 C 15.847656 -27.5625 17.015625 -27.335938 18.390625 -26.890625 C 20.585938 -26.160156 23.453125 -24.941406 26.984375 -23.234375 C 31.609375 -21.054688 35.832031 -19.445312 39.65625 -18.40625 C 41.113281 -18.007812 42.3125 -17.8125 43.25 -17.8125 C 43.988281 -17.8125 44.566406 -17.9375 44.984375 -18.1875 C 41.972656 -15.382812 38.390625 -13.929688 34.234375 -13.828125 C 33.828125 -13.804688 33.414062 -13.796875 33 -13.796875 L 31.09375 -11.03125 C 28.664062 -7.5625 25.507812 -4.851562 21.625 -2.90625 C 17.738281 -0.96875 13.5625 0 9.09375 0 Z M 9.09375 0 "/></g></g></g><g fill="#ffffff" fill-opacity="1"><g transform="translate(172.281948, 77.332432)"><g><path d="M 12.078125 11.3125 L 4.234375 -3.046875 C 7.640625 -2.578125 10.710938 -2.34375 13.453125 -2.34375 C 15.378906 -2.34375 17.695312 -2.535156 20.40625 -2.921875 C 23.125 -3.316406 25.550781 -4.046875 27.6875 -5.109375 C 29.820312 -6.171875 31.191406 -7.09375 31.796875 -7.875 L 22.265625 -41.9375 L 32.640625 -50.25 L 32.640625 -15.171875 C 32.640625 -10.992188 32.242188 -6.847656 31.453125 -2.734375 C 31.140625 -1.179688 30.847656 -0.0507812 30.578125 0.65625 C 28.585938 4.914062 25.304688 7.894531 20.734375 9.59375 C 17.492188 10.632812 14.609375 11.207031 12.078125 11.3125 Z M 14.921875 -3.296875 L 11.578125 -10.8125 C 10.523438 -9.789062 9.445312 -8.945312 8.34375 -8.28125 C 9.425781 -9.175781 10.453125 -10.144531 11.421875 -11.1875 L 0.953125 -35.859375 L 8.03125 -43.765625 L 8.03125 -43.515625 C 8.03125 -42.398438 8.703125 -40.910156 10.046875 -39.046875 C 11.398438 -37.191406 12.828125 -35.421875 14.328125 -33.734375 L 15.4375 -32.421875 C 16.914062 -30.703125 17.820312 -28.753906 18.15625 -26.578125 C 18.34375 -25.742188 18.4375 -24.910156 18.4375 -24.078125 C 18.4375 -21.566406 17.675781 -19.015625 16.15625 -16.421875 C 16.675781 -14.816406 16.9375 -13.257812 16.9375 -11.75 C 16.9375 -11.6875 16.925781 -11.253906 16.90625 -10.453125 C 16.882812 -9.648438 16.710938 -8.625 16.390625 -7.375 C 16.066406 -6.132812 15.75 -5.148438 15.4375 -4.421875 Z M 15.96875 -17.140625 C 16.90625 -18.878906 17.507812 -20.617188 17.78125 -22.359375 C 17.820312 -22.671875 17.84375 -22.984375 17.84375 -23.296875 C 17.84375 -23.773438 17.789062 -24.253906 17.6875 -24.734375 C 17.351562 -25.984375 16.835938 -27.035156 16.140625 -27.890625 C 15.441406 -28.753906 14.660156 -29.5625 13.796875 -30.3125 C 13.171875 -30.875 12.566406 -31.472656 11.984375 -32.109375 Z M 15.96875 -17.140625 "/></g></g></g></g></g></svg>