<svg xmlns="http://www.w3.org/2000/svg" xmlns:xlink="http://www.w3.org/1999/xlink" width="200" zoomAndPan="magnify" viewBox="0 0 150 44.999999" height="60" preserveAspectRatio="xMidYMid meet" version="1.0"><defs><g/><clipPath id="6d63fc5973"><path d="M 44 0 L 69 0 L 69 35 L 44 35 Z M 44 0 " clip-rule="nonzero"/></clipPath><clipPath id="c0114ccb5a"><rect x="0" width="132" y="0" height="45"/></clipPath></defs><g transform="matrix(1, 0, 0, 1, 18, 0)"><g clip-path="url(#c0114ccb5a)"><g fill="#ffffff" fill-opacity="1"><g transform="translate(0.537743, 27.890749)"><g><path d="M 14.03125 16.734375 L 10.984375 14.5625 L 9.421875 16.734375 L 5.625 14.03125 L 8 10.5625 L 11.078125 12.828125 L 12.625 10.5625 L 16.46875 13.390625 Z M 11.6875 8.984375 C 9.832031 8.984375 8.242188 8.796875 6.921875 8.421875 C 4.441406 7.710938 2.707031 6.523438 1.71875 4.859375 C 1.1875 3.960938 0.921875 3.039062 0.921875 2.09375 C 0.921875 0.957031 1.207031 -0.234375 1.78125 -1.484375 C 2.363281 -2.742188 3.125 -3.941406 4.0625 -5.078125 C 5.007812 -6.210938 5.898438 -7.101562 6.734375 -7.75 C 4.992188 -6.019531 4.125 -4.425781 4.125 -2.96875 C 4.125 -2.957031 4.128906 -2.582031 4.140625 -1.84375 C 4.148438 -1.101562 4.945312 -0.285156 6.53125 0.609375 C 8.125 1.515625 10.351562 1.96875 13.21875 1.96875 C 16.332031 1.96875 18.8125 1.90625 20.65625 1.78125 C 21.988281 1.65625 23.035156 1.0625 23.796875 0 L 12.578125 0 L 16.90625 -6.265625 L 24.609375 -6.265625 L 24.609375 0 L 24.0625 0 C 23.925781 0.507812 23.691406 1.132812 23.359375 1.875 C 23.023438 2.625 22.5625 3.410156 21.96875 4.234375 C 21.375 5.054688 20.613281 5.820312 19.6875 6.53125 C 18.769531 7.25 17.65625 7.835938 16.34375 8.296875 C 15.03125 8.753906 13.476562 8.984375 11.6875 8.984375 Z M 11.6875 8.984375 "/></g></g></g><g fill="#ffffff" fill-opacity="1"><g transform="translate(25.051816, 27.890749)"><g><path d="M 1.734375 0 L -0.140625 0 L -0.140625 -6.265625 L 8.828125 -6.265625 L 8.109375 -7.296875 C 7.617188 -7.972656 6.910156 -8.789062 5.984375 -9.75 C 5.054688 -10.71875 3.925781 -11.65625 2.59375 -12.5625 L 4.90625 -17.28125 L 5.546875 -16.75 C 5.953125 -16.382812 6.421875 -15.8125 6.953125 -15.03125 C 7.484375 -14.257812 7.941406 -13.269531 8.328125 -12.0625 C 8.710938 -10.851562 8.90625 -9.414062 8.90625 -7.75 L 8.90625 -7.609375 C 8.875 -5.828125 8.640625 -4.414062 8.203125 -3.375 C 7.765625 -2.34375 7.195312 -1.582031 6.5 -1.09375 C 5.800781 -0.613281 5.035156 -0.3125 4.203125 -0.1875 C 3.367188 -0.0625 2.546875 0 1.734375 0 Z M 6.140625 -18.671875 L 3.109375 -20.828125 L 1.53125 -18.671875 L -2.25 -21.359375 L 0.109375 -24.828125 L 3.1875 -22.578125 L 4.75 -24.828125 L 8.578125 -22.015625 Z M 6.140625 -18.671875 "/></g></g></g><g fill="#ffffff" fill-opacity="1"><g transform="translate(34.59455, 27.890749)"><g><path d="M 11.171875 0 C 9.941406 0 8.84375 -0.363281 7.875 -1.09375 C 6.90625 -1.832031 6.238281 -2.804688 5.875 -4.015625 L 0.5 -22.84375 L 6.171875 -27.375 L 6.171875 -6.265625 L 11.171875 -6.265625 Z M 11.171875 0 "/></g></g></g><g clip-path="url(#6d63fc5973)"><g fill="#ffffff" fill-opacity="1"><g transform="translate(45.63954, 27.890749)"><g><path d="M -1.453125 6.140625 C -1.046875 5.191406 -0.554688 4.0625 0.015625 2.75 C 0.523438 1.644531 0.929688 0.726562 1.234375 0 L -0.203125 0 L -0.203125 -6.265625 L 3.28125 -6.265625 L 0.625 -24.453125 L 5.28125 -28.171875 L 5.28125 -8.234375 C 6.863281 -10.765625 8.445312 -12.722656 10.03125 -14.109375 C 11.625 -15.503906 13.148438 -16.335938 14.609375 -16.609375 C 15.085938 -16.691406 15.535156 -16.734375 15.953125 -16.734375 C 16.773438 -16.734375 17.523438 -16.53125 18.203125 -16.125 C 18.890625 -15.71875 19.410156 -15.0625 19.765625 -14.15625 C 20.128906 -13.257812 20.34375 -12.300781 20.40625 -11.28125 C 20.4375 -10.726562 20.453125 -10.207031 20.453125 -9.71875 C 20.453125 -8.414062 20.335938 -7.265625 20.109375 -6.265625 L 23.25 -6.265625 L 23.25 0 L 1.59375 0 C 1.125 0.894531 0.660156 1.8125 0.203125 2.75 Z M 14.46875 -6.265625 C 16.632812 -6.296875 18.5 -6.734375 20.0625 -7.578125 C 20.0625 -8.828125 19.800781 -9.816406 19.28125 -10.546875 C 18.445312 -11.691406 17.144531 -12.265625 15.375 -12.265625 C 14.988281 -12.265625 14.414062 -12.210938 13.65625 -12.109375 C 12.894531 -12.003906 11.929688 -11.6875 10.765625 -11.15625 C 9.597656 -10.632812 8.472656 -9.957031 7.390625 -9.125 C 6.316406 -8.300781 5.359375 -7.347656 4.515625 -6.265625 Z M 16.09375 -18.984375 L 12.296875 -21.6875 L 14.671875 -25.140625 L 18.515625 -22.3125 Z M 16.09375 -18.984375 "/></g></g></g></g><g fill="#ffffff" fill-opacity="1"><g transform="translate(68.719642, 27.890749)"><g><path d="M 4.953125 0 L -0.109375 0 L -0.109375 -6.265625 L 14.140625 -6.265625 C 15.421875 -6.265625 16.59375 -6.664062 17.65625 -7.46875 L 17.71875 -7.53125 C 15.664062 -7.582031 13.671875 -7.832031 11.734375 -8.28125 C 9.796875 -8.738281 8.066406 -9.203125 6.546875 -9.671875 C 4.773438 -10.210938 3.476562 -10.507812 2.65625 -10.5625 C 2.394531 -10.5625 2.195312 -10.535156 2.0625 -10.484375 L 1.890625 -10.359375 L 2.171875 -11.015625 C 2.515625 -11.773438 2.976562 -12.472656 3.5625 -13.109375 C 4.726562 -14.378906 6.242188 -15.015625 8.109375 -15.015625 C 8.628906 -15.015625 9.265625 -14.894531 10.015625 -14.65625 C 11.210938 -14.25 12.773438 -13.582031 14.703125 -12.65625 C 17.210938 -11.46875 19.507812 -10.585938 21.59375 -10.015625 C 22.394531 -9.804688 23.050781 -9.703125 23.5625 -9.703125 C 23.957031 -9.703125 24.269531 -9.769531 24.5 -9.90625 C 22.863281 -8.375 20.910156 -7.582031 18.640625 -7.53125 C 18.429688 -7.519531 18.210938 -7.515625 17.984375 -7.515625 L 16.9375 -6.015625 C 15.613281 -4.117188 13.894531 -2.640625 11.78125 -1.578125 C 9.664062 -0.523438 7.390625 0 4.953125 0 Z M 4.953125 0 "/></g></g></g><g fill="#ffffff" fill-opacity="1"><g transform="translate(93.728776, 27.890749)"><g><path d="M 6.5625 6.15625 L 2.296875 -1.65625 C 4.148438 -1.40625 5.820312 -1.28125 7.3125 -1.28125 C 8.363281 -1.28125 9.628906 -1.382812 11.109375 -1.59375 C 12.585938 -1.800781 13.90625 -2.195312 15.0625 -2.78125 C 16.226562 -3.363281 16.976562 -3.863281 17.3125 -4.28125 L 12.125 -22.84375 L 17.765625 -27.375 L 17.765625 -8.265625 C 17.765625 -7.585938 17.75 -6.921875 17.71875 -6.265625 L 20.96875 -6.265625 L 20.96875 0 C 20.382812 0 19.867188 -0.195312 19.421875 -0.59375 C 18.972656 -0.988281 18.585938 -1.476562 18.265625 -2.0625 C 17.953125 -2.65625 17.695312 -3.253906 17.5 -3.859375 C 17.238281 -1.867188 16.953125 -0.460938 16.640625 0.359375 C 15.554688 2.679688 13.769531 4.300781 11.28125 5.21875 C 9.519531 5.789062 7.945312 6.101562 6.5625 6.15625 Z M 8.125 -1.796875 L 6.296875 -5.890625 C 5.722656 -5.328125 5.132812 -4.863281 4.53125 -4.5 C 5.125 -4.988281 5.679688 -5.519531 6.203125 -6.09375 L 0.5 -19.53125 L 4.359375 -23.84375 L 4.359375 -23.703125 C 4.359375 -23.097656 4.722656 -22.285156 5.453125 -21.265625 C 6.191406 -20.253906 6.972656 -19.289062 7.796875 -18.375 L 8.390625 -17.65625 C 9.203125 -16.71875 9.695312 -15.660156 9.875 -14.484375 C 9.976562 -14.023438 10.03125 -13.566406 10.03125 -13.109375 C 10.03125 -11.742188 9.613281 -10.359375 8.78125 -8.953125 C 9.070312 -8.066406 9.21875 -7.21875 9.21875 -6.40625 C 9.21875 -6.375 9.210938 -6.132812 9.203125 -5.6875 C 9.191406 -5.25 9.097656 -4.691406 8.921875 -4.015625 C 8.742188 -3.335938 8.566406 -2.800781 8.390625 -2.40625 Z M 8.6875 -9.34375 C 9.195312 -10.28125 9.523438 -11.222656 9.671875 -12.171875 C 9.691406 -12.347656 9.703125 -12.519531 9.703125 -12.6875 C 9.703125 -12.945312 9.675781 -13.207031 9.625 -13.46875 C 9.445312 -14.15625 9.164062 -14.726562 8.78125 -15.1875 C 8.394531 -15.65625 7.972656 -16.097656 7.515625 -16.515625 C 7.171875 -16.816406 6.835938 -17.140625 6.515625 -17.484375 Z M 8.6875 -9.34375 "/></g></g></g><g fill="#ffffff" fill-opacity="1"><g transform="translate(114.589637, 27.890749)"><g><path d="M 8.765625 0.546875 C 7.679688 0.546875 6.78125 0.359375 6.0625 -0.015625 C 4.863281 -0.628906 4.265625 -1.90625 4.265625 -3.84375 C 4.265625 -4.3125 4.300781 -4.820312 4.375 -5.375 C 4.113281 -3.5625 3.554688 -2.210938 2.703125 -1.328125 C 1.859375 -0.441406 0.914062 0 -0.125 0 L -0.125 -6.265625 C 0.925781 -6.265625 1.820312 -6.441406 2.5625 -6.796875 C 3.851562 -7.398438 4.90625 -8.429688 5.71875 -9.890625 C 6.269531 -11.023438 6.726562 -11.921875 7.09375 -12.578125 C 7.40625 -13.148438 7.757812 -13.675781 8.15625 -14.15625 C 9.050781 -15.195312 10.128906 -15.71875 11.390625 -15.71875 C 12.316406 -15.71875 13.222656 -15.378906 14.109375 -14.703125 C 14.992188 -14.035156 15.675781 -13.035156 16.15625 -11.703125 C 16.425781 -10.898438 16.5625 -9.988281 16.5625 -8.96875 C 16.5625 -8.257812 16.5 -7.5 16.375 -6.6875 C 16 -4.65625 15.265625 -3.019531 14.171875 -1.78125 C 13.085938 -0.550781 11.835938 0.175781 10.421875 0.40625 C 9.828125 0.5 9.273438 0.546875 8.765625 0.546875 Z M 10.71875 -5.578125 C 11.507812 -5.578125 12.304688 -5.625 13.109375 -5.71875 C 13.910156 -5.820312 14.601562 -5.941406 15.1875 -6.078125 L 16.03125 -6.265625 L 15.703125 -6.78125 C 15.484375 -7.125 15.148438 -7.539062 14.703125 -8.03125 C 14.265625 -8.53125 13.734375 -9.023438 13.109375 -9.515625 C 12.484375 -10.015625 11.765625 -10.429688 10.953125 -10.765625 C 10.148438 -11.109375 9.257812 -11.28125 8.28125 -11.28125 C 7.550781 -11.28125 6.945312 -11.023438 6.46875 -10.515625 C 5.988281 -10.003906 5.75 -9.40625 5.75 -8.71875 C 5.75 -8.164062 5.941406 -7.691406 6.328125 -7.296875 C 6.710938 -6.898438 7.164062 -6.570312 7.6875 -6.3125 C 8.207031 -6.0625 8.707031 -5.875 9.1875 -5.75 C 9.664062 -5.632812 10.019531 -5.578125 10.25 -5.578125 Z M 10.71875 -5.578125 "/></g></g></g></g></g></svg>